<?xml version="1.0" standalone="no"?>
<!DOCTYPE svg PUBLIC "-//W3C//DTD SVG 20010904//EN"
 "http://www.w3.org/TR/2001/REC-SVG-20010904/DTD/svg10.dtd">
<svg version="1.0" xmlns="http://www.w3.org/2000/svg"
 width="738.000000pt" height="738.000000pt" viewBox="0 0 738.000000 738.000000"
 preserveAspectRatio="xMidYMid meet">
<metadata>
Created by potrace 1.11, written by Peter Selinger 2001-2013
</metadata>
<g transform="translate(0.000000,738.000000) scale(0.100000,-0.100000)"
fill="#000000" stroke="none">
<path d="M2885 7233 c-43 -82 -97 -182 -120 -223 -23 -41 -68 -124 -100 -185
-69 -130 -191 -354 -202 -373 -7 -11 -108 -37 -255 -66 -13 -2 -77 -16 -143
-31 -66 -15 -129 -28 -140 -31 -195 -38 -173 -25 -307 -185 -20 -24 -44 -54
-55 -65 -10 -12 -36 -43 -58 -70 -22 -26 -44 -52 -50 -58 -5 -6 -32 -38 -60
-71 -27 -33 -60 -71 -71 -85 -62 -72 -164 -192 -204 -239 -25 -29 -55 -65 -67
-80 -17 -19 -23 -40 -24 -81 -1 -30 -2 -75 -4 -100 -8 -176 -17 -368 -20 -440
-2 -47 -7 -137 -10 -200 -3 -63 -7 -160 -10 -215 -2 -55 -7 -158 -10 -230 -4
-71 -8 -168 -10 -215 -4 -80 -7 -154 -20 -440 -3 -63 -8 -160 -11 -216 -4 -90
-1 -115 26 -230 18 -71 33 -136 35 -144 2 -8 8 -34 14 -57 6 -22 15 -61 20
-84 10 -48 39 -172 96 -409 37 -153 42 -176 50 -215 3 -11 20 -84 39 -162 20
-78 37 -152 40 -165 2 -12 16 -72 31 -133 15 -60 28 -117 30 -125 2 -8 13 -55
24 -105 12 -49 24 -99 26 -109 73 -313 99 -421 110 -466 15 -58 45 -183 50
-209 2 -9 17 -74 34 -146 17 -72 37 -152 43 -180 6 -27 14 -53 17 -56 3 -4 58
-10 121 -14 63 -3 129 -8 145 -10 17 -2 80 -7 140 -11 61 -3 128 -8 150 -9
150 -10 226 -16 270 -20 28 -3 91 -7 140 -10 50 -3 115 -8 145 -10 67 -5 179
-13 435 -30 44 -3 105 -8 135 -10 30 -2 96 -7 145 -10 155 -10 341 -23 430
-30 33 -3 98 -7 145 -10 47 -2 110 -7 140 -10 30 -2 96 -7 145 -10 50 -4 113
-8 140 -10 28 -2 93 -7 145 -10 52 -4 118 -8 145 -11 28 -2 86 -6 130 -9 92
-6 193 -13 280 -20 33 -2 101 -7 150 -10 112 -7 191 -13 275 -19 36 -3 103 -8
150 -11 47 -3 117 -8 155 -11 213 -15 387 -27 410 -26 36 0 42 2 42 15 1 15
26 179 53 342 10 66 22 143 25 170 4 28 8 57 10 65 3 8 7 33 10 55 4 22 10 68
16 101 l9 62 -96 198 c-53 110 -132 273 -176 364 -44 91 -110 226 -145 300
-36 74 -106 218 -155 320 -50 102 -112 230 -138 285 -49 100 -65 151 -95 300
-10 44 -19 89 -22 100 -2 11 -6 30 -9 41 -2 12 -18 81 -34 154 -16 73 -32 142
-34 154 -2 11 -9 41 -15 66 -5 25 -12 56 -15 70 -2 14 -12 59 -21 100 -22 98
-34 153 -35 162 0 4 -6 5 -12 3 -7 -2 -24 -6 -38 -9 -14 -2 -68 -14 -120 -26
-52 -12 -102 -23 -111 -25 -9 -2 -61 -13 -115 -25 -55 -12 -108 -23 -119 -26
-10 -2 -89 -19 -175 -38 -85 -19 -290 -65 -455 -101 -165 -36 -362 -80 -439
-97 -110 -25 -140 -28 -146 -18 -4 7 -11 40 -15 74 -4 34 -9 70 -11 81 -2 11
-6 40 -9 65 -3 25 -7 54 -9 65 -2 12 -7 48 -11 80 -4 33 -9 69 -11 80 -2 10
-6 35 -8 55 -3 19 -13 85 -21 145 -9 61 -18 130 -21 155 -2 25 -7 56 -9 70 -6
31 -21 137 -30 209 -4 30 -8 61 -10 70 -5 27 -14 93 -20 141 -3 25 -8 56 -10
70 -5 23 -7 43 -20 145 -3 22 -7 49 -9 60 -4 22 -28 209 -29 222 0 5 9 13 19
18 11 6 30 18 44 26 40 26 492 300 530 322 19 11 65 39 101 62 37 24 86 54
110 68 63 35 176 104 236 143 28 19 54 34 57 34 4 0 30 15 59 34 28 19 100 63
159 98 l106 65 -40 84 c-22 46 -59 125 -83 174 -110 233 -138 290 -205 430
-40 83 -89 186 -110 230 -37 79 -81 171 -195 410 -32 66 -79 166 -106 223
l-49 102 -573 0 -573 0 -79 -147z"/>
</g>
</svg>
